@startuml
skinparam linetype polyline
skinparam linetype ortho

package "Definitions" <<Frame>> {

interface definition
interface key

container *-- definition

definition <-- fileDefinition
definition <-- recordDefinition
definition <-- fieldDefinition

recordDefinition *-- primaryKey
recordDefinition *-- foreignKey
recordDefinition *-- candidateKey
primaryKey --> key
foreignKey --> key
candidateKey --> key

fieldDefinition *-- code
}

@enduml